<svg width="50" height="50" viewBox="0 0 50 50" fill="none" xmlns="http://www.w3.org/2000/svg">
<path d="M24.9997 0.0952148C11.2557 0.0952148 0.11377 11.2376 0.11377 24.9816C0.11377 38.7252 11.2557 49.8689 24.9997 49.8689C38.7438 49.8689 49.8866 38.7256 49.8866 24.9816C49.8862 11.2376 38.7438 0.0952148 24.9997 0.0952148ZM33.4988 16.0144C33.4988 16.252 33.3064 16.4447 33.0684 16.4447H27.0101V19.7009H33.068C33.306 19.7009 33.4983 19.8937 33.4983 20.1312V26.1886C33.4983 26.4266 33.306 26.6189 33.068 26.6189H27.4405V39.912C27.4405 40.15 27.2481 40.3423 27.0101 40.3423H21.2849C21.0469 40.3423 20.8546 40.15 20.8546 39.912V26.6194H16.9315C16.6935 26.6194 16.5012 26.427 16.5012 26.1891V20.1316C16.5012 19.8941 16.6935 19.7013 16.9315 19.7013H20.8546V17.2451C20.8546 17.2098 20.8589 17.1758 20.8666 17.1431C20.8701 13.6443 21.6184 9.64159 27.3505 9.62351C27.363 9.62265 27.3763 9.62179 27.3892 9.62179H33.068C33.306 9.62179 33.4983 9.81457 33.4983 10.0521V16.0144H33.4988Z" fill="#65DFEA"/>
</svg>
