<svg width="406" height="70" viewBox="0 0 406 70" fill="none" xmlns="http://www.w3.org/2000/svg">
<circle cx="42" cy="35" r="35" fill="#251558"/>
<circle cx="42" cy="35" r="23" stroke="#A374E8" stroke-width="2"/>
<path d="M10.16 34.28H23.08V40.4H10.16V34.28ZM10.72 50H2.8V22H24.76V28.12H10.72V50ZM42.3497 50.56C40.1097 50.56 38.043 50.2 36.1497 49.48C34.2564 48.76 32.603 47.7467 31.1897 46.44C29.803 45.1067 28.723 43.56 27.9497 41.8C27.1764 40.04 26.7897 38.1067 26.7897 36C26.7897 33.8933 27.1764 31.96 27.9497 30.2C28.723 28.44 29.803 26.9067 31.1897 25.6C32.603 24.2667 34.2564 23.24 36.1497 22.52C38.043 21.8 40.1097 21.44 42.3497 21.44C44.6164 21.44 46.683 21.8 48.5497 22.52C50.443 23.24 52.083 24.2667 53.4697 25.6C54.8564 26.9067 55.9364 28.44 56.7097 30.2C57.5097 31.96 57.9097 33.8933 57.9097 36C57.9097 38.1067 57.5097 40.0533 56.7097 41.84C55.9364 43.6 54.8564 45.1333 53.4697 46.44C52.083 47.7467 50.443 48.76 48.5497 49.48C46.683 50.2 44.6164 50.56 42.3497 50.56ZM42.3497 44C43.4164 44 44.403 43.8133 45.3097 43.44C46.243 43.0667 47.043 42.5333 47.7097 41.84C48.403 41.12 48.9364 40.2667 49.3097 39.28C49.7097 38.2933 49.9097 37.2 49.9097 36C49.9097 34.7733 49.7097 33.68 49.3097 32.72C48.9364 31.7333 48.403 30.8933 47.7097 30.2C47.043 29.48 46.243 28.9333 45.3097 28.56C44.403 28.1867 43.4164 28 42.3497 28C41.283 28 40.283 28.1867 39.3497 28.56C38.443 28.9333 37.643 29.48 36.9497 30.2C36.283 30.8933 35.7497 31.7333 35.3497 32.72C34.9764 33.68 34.7897 34.7733 34.7897 36C34.7897 37.2 34.9764 38.2933 35.3497 39.28C35.7497 40.2667 36.283 41.12 36.9497 41.84C37.643 42.5333 38.443 43.0667 39.3497 43.44C40.283 43.8133 41.283 44 42.3497 44ZM62.0578 50V22H74.8578C77.4178 22 79.6178 22.4133 81.4578 23.24C83.3245 24.0667 84.7645 25.2667 85.7778 26.84C86.7911 28.3867 87.2978 30.2267 87.2978 32.36C87.2978 34.4667 86.7911 36.2933 85.7778 37.84C84.7645 39.36 83.3245 40.5333 81.4578 41.36C79.6178 42.16 77.4178 42.56 74.8578 42.56H66.4578L69.9778 39.24V50H62.0578ZM79.3778 50L72.4178 39.8H80.8578L87.8578 50H79.3778ZM69.9778 40.08L66.4578 36.44H74.3778C76.0311 36.44 77.2578 36.08 78.0578 35.36C78.8845 34.64 79.2978 33.64 79.2978 32.36C79.2978 31.0533 78.8845 30.04 78.0578 29.32C77.2578 28.6 76.0311 28.24 74.3778 28.24H66.4578L69.9778 24.6V40.08ZM97.2366 50V28.28H88.6366V22H113.717V28.28H105.157V50H97.2366ZM116.667 50V22H123.187L138.627 40.64H135.547V22H143.307V50H136.787L121.347 31.36H124.427V50H116.667ZM148.894 50V22H156.814V50H148.894ZM168.408 50V28.28H159.808V22H184.888V28.28H176.328V50H168.408ZM195.119 32.84H208.119V38.76H195.119V32.84ZM195.679 43.88H210.319V50H187.839V22H209.799V28.12H195.679V43.88ZM217.945 50.36C216.665 50.36 215.585 49.9333 214.705 49.08C213.825 48.2267 213.385 47.1467 213.385 45.84C213.385 44.48 213.825 43.4 214.705 42.6C215.585 41.7733 216.665 41.36 217.945 41.36C219.225 41.36 220.305 41.7733 221.185 42.6C222.065 43.4 222.505 44.48 222.505 45.84C222.505 47.1467 222.065 48.2267 221.185 49.08C220.305 49.9333 219.225 50.36 217.945 50.36ZM226.433 50V22H232.953L244.553 41.04H241.113L252.393 22H258.913L258.993 50H251.713L251.633 33.08H252.873L244.433 47.24H240.913L232.233 33.08H233.753V50H226.433ZM261.237 50L273.597 22H281.397L293.797 50H285.557L275.877 25.88H278.997L269.317 50H261.237ZM267.997 44.56L270.037 38.72H283.717L285.757 44.56H267.997ZM296.042 50V22H308.842C311.402 22 313.602 22.4133 315.442 23.24C317.309 24.0667 318.749 25.2667 319.762 26.84C320.776 28.3867 321.282 30.2267 321.282 32.36C321.282 34.4667 320.776 36.2933 319.762 37.84C318.749 39.36 317.309 40.5333 315.442 41.36C313.602 42.16 311.402 42.56 308.842 42.56H300.442L303.962 39.24V50H296.042ZM313.362 50L306.402 39.8H314.842L321.842 50H313.362ZM303.962 40.08L300.442 36.44H308.362C310.016 36.44 311.242 36.08 312.042 35.36C312.869 34.64 313.282 33.64 313.282 32.36C313.282 31.0533 312.869 30.04 312.042 29.32C311.242 28.6 310.016 28.24 308.362 28.24H300.442L303.962 24.6V40.08ZM332.732 43.8L332.292 34.92L344.332 22H353.052L341.052 35L336.652 39.6L332.732 43.8ZM325.652 50V22H333.492V50H325.652ZM344.452 50L335.332 38.44L340.492 32.92L353.652 50H344.452ZM363.01 32.84H376.01V38.76H363.01V32.84ZM363.57 43.88H378.21V50H355.73V22H377.69V28.12H363.57V43.88ZM388.565 50V28.28H379.965V22H405.045V28.28H396.485V50H388.565Z" fill="white"/>
<rect x="67" y="55" width="336" height="2" rx="1" fill="#251558"/>
</svg>
