<svg width="48" height="48" viewBox="0 0 48 48" fill="none" xmlns="http://www.w3.org/2000/svg">
<circle cx="24" cy="24" r="24" fill="#65DFEA"/>
<path d="M19 20C20.1046 20 21 19.1046 21 18C21 16.8954 20.1046 16 19 16C17.8954 16 17 16.8954 17 18C17 19.1046 17.8954 20 19 20Z" fill="#382370"/>
<path d="M29 20C30.1046 20 31 19.1046 31 18C31 16.8954 30.1046 16 29 16C27.8954 16 27 16.8954 27 18C27 19.1046 27.8954 20 29 20Z" fill="#382370"/>
<path d="M13.1077 31C12.9099 30.9997 12.7156 30.9439 12.5452 30.8383C12.3748 30.7326 12.2344 30.5811 12.1386 30.3993C12.0428 30.2175 11.9951 30.0121 12.0004 29.8045C12.0057 29.5968 12.0638 29.3944 12.1687 29.2182L14.9528 24.5437C15.1092 24.283 15.3577 24.098 15.6438 24.0293C15.93 23.9606 16.2304 24.0138 16.4792 24.1772C16.728 24.3406 16.905 24.601 16.9713 24.9011C17.0376 25.2013 16.9879 25.5169 16.833 25.7786L14.0489 30.453C13.9492 30.6207 13.8105 30.7588 13.6458 30.8545C13.4812 30.9502 13.296 31.0003 13.1077 31Z" fill="#382370"/>
<path d="M24.0022 32C22.0726 32.005 20.1675 31.5979 18.4334 30.8098C16.6994 30.0218 15.1827 28.8739 14 27.4544L15.9996 26C16.9483 27.1325 18.162 28.0488 19.5482 28.6791C20.9344 29.3095 22.4567 29.6374 23.9994 29.6378C25.5421 29.6382 27.0647 29.3113 28.4513 28.6817C29.8379 28.0522 31.0521 27.1366 32.0017 26.0046L34 27.4591C32.8172 28.8771 31.301 30.0238 29.5678 30.811C27.8346 31.5982 25.9306 32.0049 24.0022 32Z" fill="#382370"/>
<path d="M34.8922 31C34.704 31.0003 34.5188 30.9503 34.3541 30.8546C34.1895 30.7589 34.0507 30.6207 33.951 30.4531L31.167 25.7786C31.0121 25.5169 30.9624 25.2013 31.0287 24.9011C31.095 24.601 31.272 24.3406 31.5208 24.1772C31.7696 24.0138 32.07 23.9606 32.3562 24.0293C32.6423 24.098 32.8908 24.283 33.0472 24.5437L35.8313 29.2182C35.9362 29.3944 35.9943 29.5968 35.9996 29.8045C36.0049 30.0121 35.9572 30.2175 35.8614 30.3993C35.7656 30.5811 35.6252 30.7326 35.4548 30.8383C35.2844 30.9439 35.0902 30.9997 34.8923 31H34.8922Z" fill="#382370"/>
</svg>
