<svg width="41" height="26" viewBox="0 0 41 26" fill="none" xmlns="http://www.w3.org/2000/svg">
<path d="M12.927 25.153C19.7579 25.153 25.2954 19.6155 25.2954 12.7846C25.2954 5.95373 19.7579 0.416199 12.927 0.416199C6.09612 0.416199 0.558594 5.95373 0.558594 12.7846C0.558594 19.6155 6.09612 25.153 12.927 25.153Z" fill="#F93232"/>
<path d="M27.7691 0.416199C24.9911 0.416199 22.4358 1.34383 20.3727 2.88988H20.348V2.9072C19.8582 3.27578 19.408 3.69136 18.9788 4.12672H21.7172C22.0981 4.51385 22.4494 4.9282 22.7747 5.36356H17.9114C17.6121 5.75812 17.3375 6.16999 17.0864 6.60041H23.5972C23.8297 7.00114 24.0486 7.4093 24.2379 7.83725H16.4569C16.28 8.23922 16.1242 8.65109 15.9906 9.07409H24.7029C24.8316 9.4773 24.933 9.89164 25.022 10.3109H15.6678C15.5849 10.7166 15.5157 11.1272 15.4736 11.5478H25.2212C25.2694 11.9535 25.2954 12.3653 25.2954 12.7846H15.4006C15.4006 13.2039 15.434 13.6133 15.4748 14.0215H25.2236C25.1766 14.4407 25.1086 14.8526 25.0233 15.2583H15.669C15.7544 15.6801 15.8644 16.0907 15.9918 16.4951H24.7042C24.5706 16.9181 24.4147 17.33 24.2379 17.732H16.4569C16.6437 18.1575 16.8539 18.5706 17.0864 18.9688H23.5972C23.3473 19.3992 23.0691 19.8111 22.7697 20.2057H17.9114C18.2404 20.641 18.5954 21.0554 18.9776 21.4425H21.7172C21.2868 21.8791 20.8378 22.2935 20.348 22.662C22.416 24.2192 24.98 25.153 27.7691 25.153C34.6001 25.153 40.1375 19.6145 40.1375 12.7846C40.1375 5.95478 34.6001 0.416199 27.7691 0.416199Z" fill="#FED049"/>
</svg>
