<svg width="62" height="18" viewBox="0 0 62 18" fill="none" xmlns="http://www.w3.org/2000/svg">
<path fill-rule="evenodd" clip-rule="evenodd" d="M6.20347 0.919563C6.74368 0.916331 8.34916 0.771733 9.02921 3.0669C9.4873 4.61295 10.217 7.14546 11.2183 10.6644H11.6261C12.7 6.95448 13.4376 4.42198 13.8391 3.0669C14.5263 0.747825 16.2441 0.919608 16.9313 0.919608L22.2327 0.919615V17.4108H16.8293V7.69227H16.467L13.4549 17.4108H9.38958L6.37748 7.68506H6.01515V17.4108H0.611816V0.919615L6.20347 0.919563ZM29.9917 0.919615V10.6454H30.4228L34.0867 2.64795C34.798 1.05644 36.3138 0.919615 36.3138 0.919615H41.5426V17.4108H36.0265V7.68506H35.5954L32.0033 15.6825C31.2921 17.2668 29.7044 17.4108 29.7044 17.4108H24.4756V0.919615H29.9917ZM60.609 8.75635C59.8396 10.9368 57.4232 12.4984 54.7479 12.4984H48.9631V17.4108H43.7176V8.75635H60.609Z" fill="#0F754E"/>
<path fill-rule="evenodd" clip-rule="evenodd" d="M55.0009 0.919617H43.4425C43.7176 4.59112 46.8794 7.73417 50.1525 7.73417H60.9735C61.598 4.68271 59.4483 0.919617 55.0009 0.919617Z" fill="url(#paint0_linear_1_1489)"/>
<defs>
<linearGradient id="paint0_linear_1_1489" x1="61.0796" y1="5.20626" x2="43.4425" y2="5.20626" gradientUnits="userSpaceOnUse">
<stop stop-color="#1F5CD7"/>
<stop offset="1" stop-color="#02AEFF"/>
</linearGradient>
</defs>
</svg>
