<svg width="75" height="14" viewBox="0 0 75 14" fill="none" xmlns="http://www.w3.org/2000/svg">
<path d="M0.299805 12.9611V0.568604H4.31501C5.83671 0.568604 6.82825 0.630797 7.29046 0.754637C8.00062 0.940671 8.59516 1.34507 9.07408 1.96783C9.553 2.59059 9.79246 3.395 9.79246 4.38134C9.79246 5.14219 9.65438 5.78166 9.3782 6.30004C9.10203 6.81869 8.75133 7.22555 8.32584 7.52145C7.90034 7.81735 7.468 8.01325 7.02826 8.10887C6.43098 8.22723 5.56602 8.28641 4.4331 8.28641H2.80154V12.9614H0.299805V12.9611ZM2.80181 2.66512V6.18168H4.17145C5.15751 6.18168 5.81698 6.11702 6.1496 5.98715C6.48194 5.85756 6.74277 5.65481 6.93154 5.37863C7.12004 5.10246 7.21457 4.78135 7.21457 4.41477C7.21457 3.96406 7.08223 3.59227 6.81729 3.29911C6.55235 3.00622 6.21727 2.82293 5.8115 2.74978C5.51286 2.69334 4.91257 2.66512 4.01089 2.66512H2.80181Z" fill="black"/>
<path d="M21.7411 12.9611H19.0191L17.9371 10.1459H12.9835L11.9607 12.9611H9.3064L14.1331 0.568604H16.779L21.7411 12.9611ZM17.1341 8.05818L15.4266 3.45966L13.7529 8.05818H17.1341Z" fill="black"/>
<path d="M24.7472 12.9611V7.74529L20.2079 0.568604H23.1411L26.0577 5.47151L28.915 0.568604H31.7976L27.2413 7.76228V12.9611H24.7472Z" fill="black"/>
<path d="M33.0221 12.9611V0.568604H42.2109V2.66512H35.5244V5.41233H41.746V7.50035H35.5244V10.8733H42.4476V12.9614H33.0221V12.9611Z" fill="#64B3DF"/>
<path d="M44.5691 12.9611V0.568604H53.7579V2.66512H47.0714V5.41233H53.293V7.50035H47.0714V10.8733H53.9946V12.9614H44.5691V12.9611Z" fill="#64B3DF"/>
<path d="M56.1245 12.9611V0.568604H61.391C62.7152 0.568604 63.6777 0.67984 64.2777 0.902588C64.8777 1.12534 65.3583 1.52124 65.7191 2.0903C66.0797 2.65964 66.2602 3.31062 66.2602 4.04297C66.2602 4.97287 65.9868 5.74084 65.4402 6.34661C64.8936 6.95239 64.0763 7.33432 62.9889 7.49213C63.53 7.80776 63.9763 8.15435 64.3289 8.5319C64.681 8.90944 65.1561 9.58015 65.7531 10.5437L67.2663 12.9614H64.2736L62.4645 10.2648C61.822 9.30096 61.3825 8.69382 61.1458 8.44285C60.9091 8.19216 60.6584 8.02037 60.3934 7.92722C60.1285 7.83406 59.7087 7.78776 59.1337 7.78776H58.6265V12.9614H56.1245V12.9611ZM58.6268 5.80961H60.4781C61.6784 5.80961 62.4277 5.75892 62.7267 5.65755C63.0253 5.55618 63.259 5.38165 63.4283 5.13342C63.5974 4.88547 63.682 4.57559 63.682 4.20353C63.682 3.78652 63.5708 3.4498 63.3481 3.19335C63.1253 2.93691 62.8113 2.77498 62.4056 2.70731C62.2028 2.67909 61.594 2.66512 60.5797 2.66512H58.6271V5.80961H58.6268Z" fill="#64B3DF"/>
<path d="M74.3471 9.49961C74.3471 10.4555 74.0103 11.2712 73.3372 11.9471C72.6637 12.6233 71.8503 12.9616 70.8952 12.9616C69.9401 12.9616 69.1283 12.6233 68.4578 11.9471C67.7907 11.2736 67.4575 10.4577 67.4575 9.49961C67.4575 8.55053 67.7945 7.74064 68.4671 7.06747C69.1379 6.39758 69.9466 6.0625 70.8952 6.0625C71.8503 6.0625 72.6637 6.39758 73.3372 7.06747C74.0106 7.73735 74.3471 8.54889 74.3471 9.49961ZM70.8954 6.53183C70.0784 6.53183 69.3806 6.82307 68.8006 7.40529C68.2249 7.98503 67.9367 8.68396 67.9367 9.50481C67.9367 10.3314 68.2233 11.0358 68.7962 11.6186C69.3729 12.2005 70.0716 12.4918 70.8954 12.4918C71.719 12.4918 72.418 12.2005 72.9944 11.6186C73.5712 11.0358 73.8586 10.3314 73.8586 9.50481C73.8586 8.68396 73.5712 7.98503 72.9944 7.40529C72.4161 6.8228 71.7152 6.53183 70.8954 6.53183ZM70.8291 7.5979C71.2993 7.5979 71.644 7.6431 71.8626 7.73379C72.2544 7.89708 72.4497 8.21655 72.4497 8.69355C72.4497 9.03137 72.3265 9.28152 72.0804 9.44097C71.95 9.52563 71.7678 9.58564 71.5327 9.62317C71.8297 9.6703 72.0456 9.79441 72.1829 9.99551C72.3199 10.1947 72.3887 10.3895 72.3887 10.5813V10.8575C72.3887 10.9457 72.3911 11.0397 72.3977 11.1394C72.4043 11.2386 72.4158 11.3049 72.4306 11.3367L72.4541 11.3835H71.8297C71.8259 11.3704 71.824 11.358 71.8201 11.346C71.8163 11.3328 71.8147 11.3194 71.8108 11.3027L71.7969 11.1816V10.8818C71.7969 10.4454 71.6774 10.1569 71.4396 10.0163C71.299 9.93551 71.0516 9.89387 70.6976 9.89387H70.1719V11.3838H69.505V7.5979H70.8291ZM71.8018 8.74807C71.8018 8.47409 71.7171 8.28751 71.55 8.19435C71.3818 8.10038 71.1119 8.05325 70.7423 8.05325H70.1721V9.42399H70.7749C71.0576 9.42399 71.27 9.39577 71.4108 9.33933C71.6714 9.23658 71.8018 9.03904 71.8018 8.74807Z" fill="black"/>
</svg>
