<svg width="150" height="150" viewBox="0 0 150 150" fill="none" xmlns="http://www.w3.org/2000/svg">
<path d="M75 150C116.421 150 150 116.421 150 75C150 33.5786 116.421 0 75 0C33.5786 0 0 33.5786 0 75C0 116.421 33.5786 150 75 150Z" fill="#E33E23"/>
<path fill-rule="evenodd" clip-rule="evenodd" d="M17.228 75.9736C17.228 75.9736 50.6166 83.1824 55.3084 67.6655C59.9086 52.4515 44.653 49.305 44.653 49.305H37.9512V74.8161H30.7701V50.1343H24.4113V47.5262C24.4113 47.5262 48.5029 47.4303 51.1631 47.7413C64.5392 49.305 71.0492 73.268 49.6265 78.0429C32.964 81.7568 17.228 75.9736 17.228 75.9736ZM30.7295 81.4696V96.7832C30.7295 96.7832 30.6876 100.042 27.7481 100.042C24.8086 100.042 24.0882 100.042 24.0882 100.042V102.598H44.8118V99.7856H40.2276C40.2276 99.7856 37.863 99.5174 37.863 97.1131C37.863 94.7087 37.863 81.3287 37.863 81.3287H30.7705L30.7295 81.4696ZM57.2159 102.725H78.0883V99.5242H72.0883C72.0883 99.5242 70.1391 98.4233 70.1391 96.1941C70.1391 93.965 70.1391 57.6518 70.1391 57.6518L93.4033 102.676L116.161 58.514L115.661 96.612C115.661 96.612 116.232 99.7607 113.012 99.7607C109.792 99.7607 109.109 99.8582 109.109 99.8582L109.07 102.31H129.943V99.3955H125.071C125.071 99.3955 123.04 99.5947 123.04 97.3644C123.04 95.1342 123.04 51.1236 123.04 51.1236C123.04 51.1236 123.07 50.1134 124.867 50.1134H129.097V46.9988H116.147L94.8245 91.188L73.6355 47.3109H62.0469V49.9516H65.7264C65.7264 49.9516 67.0023 49.8111 67.0023 51.7501C67.0023 53.6891 66.5023 96.3993 66.5023 96.3993C66.5023 96.3993 66.6705 99.7145 63.0313 99.7145C59.3921 99.7145 57.2235 99.7145 57.2235 99.7145V102.937L57.2159 102.725Z" fill="white"/>
</svg>
