<svg width="31" height="32" viewBox="0 0 31 32" fill="none" xmlns="http://www.w3.org/2000/svg">
<path d="M15.4605 31.012C23.9991 31.012 30.921 24.0901 30.921 15.5515C30.921 7.01285 23.9991 0.0909424 15.4605 0.0909424C6.92191 0.0909424 0 7.01285 0 15.5515C0 24.0901 6.92191 31.012 15.4605 31.012Z" fill="#E33E23"/>
<path fill-rule="evenodd" clip-rule="evenodd" d="M3.55139 15.7522C3.55139 15.7522 10.4341 17.2382 11.4013 14.0395C12.3496 10.9033 9.20479 10.2547 9.20479 10.2547H7.82328V15.5136H6.34295V10.4257H5.03216V9.88802C5.03216 9.88802 9.99839 9.86824 10.5468 9.93235C13.3041 10.2547 14.6461 15.1944 10.23 16.1787C6.7952 16.9443 3.55139 15.7522 3.55139 15.7522ZM6.33458 16.8851V20.0419C6.33458 20.0419 6.32594 20.7136 5.72 20.7136C5.11405 20.7136 4.96556 20.7136 4.96556 20.7136V21.2405H9.23753V20.6608H8.29252C8.29252 20.6608 7.80508 20.6055 7.80508 20.1099C7.80508 19.6142 7.80508 16.8561 7.80508 16.8561H6.34303L6.33458 16.8851ZM11.7945 21.2666H16.0971V20.6069H14.8603C14.8603 20.6069 14.4585 20.38 14.4585 19.9204C14.4585 19.4609 14.4585 11.9753 14.4585 11.9753L19.2542 21.2566L23.9455 12.153L23.8424 20.0066C23.8424 20.0066 23.9601 20.6557 23.2963 20.6557C22.6326 20.6557 22.4918 20.6757 22.4918 20.6757L22.4837 21.1811H26.7866V20.5804H25.7822C25.7822 20.5804 25.3635 20.6214 25.3635 20.1617C25.3635 19.7019 25.3635 10.6296 25.3635 10.6296C25.3635 10.6296 25.3697 10.4214 25.7402 10.4214H26.6122V9.7793H23.9425L19.5471 18.8885L15.1792 9.84363H12.7904V10.388H13.5489C13.5489 10.388 13.8119 10.359 13.8119 10.7587C13.8119 11.1584 13.7088 19.9627 13.7088 19.9627C13.7088 19.9627 13.7435 20.6461 12.9933 20.6461C12.2431 20.6461 11.7961 20.6461 11.7961 20.6461V21.3104L11.7945 21.2666Z" fill="white"/>
</svg>
