<svg width="31" height="32" viewBox="0 0 31 32" fill="none" xmlns="http://www.w3.org/2000/svg">
<path d="M15.4868 31.8369C24.0254 31.8369 30.9473 24.915 30.9473 16.3763C30.9473 7.83774 24.0254 0.915833 15.4868 0.915833C6.94815 0.915833 0.0262451 7.83774 0.0262451 16.3763C0.0262451 24.915 6.94815 31.8369 15.4868 31.8369Z" fill="#FF8C00"/>
<path d="M21.8545 19.7052C21.9038 20.0926 21.7936 20.2424 21.6709 20.2424C21.5482 20.2424 21.3762 20.0926 21.1926 19.7931C21.009 19.4935 20.9346 19.1553 21.0332 18.9814C21.094 18.8684 21.2293 18.8181 21.3888 18.8809C21.7076 19.0065 21.8303 19.4926 21.8545 19.7052ZM20.1374 20.5555C20.5172 20.8802 20.6283 21.2541 20.4312 21.5295C20.3693 21.6018 20.2921 21.6594 20.2052 21.6982C20.1183 21.737 20.0238 21.7559 19.9287 21.7537C19.7169 21.7558 19.5116 21.6801 19.3518 21.5411C19.0088 21.2416 18.9102 20.742 19.1306 20.4676C19.1776 20.4094 19.2377 20.3631 19.3061 20.3327C19.3745 20.3023 19.4491 20.2886 19.5238 20.2927C19.72 20.2927 19.9413 20.3796 20.1374 20.5545V20.5555ZM6.79016 15.3076C6.79016 10.5603 10.5683 6.7135 15.2297 6.7135C19.892 6.7135 23.6701 10.5612 23.6701 15.3076C23.6702 16.8569 23.2598 18.3786 22.4807 19.7177C22.4555 19.7554 22.3937 19.7428 22.3821 19.6926C22.0883 17.5813 20.8244 16.4198 18.9846 16.07C18.8242 16.0449 18.8001 15.9444 19.0088 15.9202C19.5731 15.87 20.3703 15.8826 20.7868 15.9579C20.8119 15.7453 20.8244 15.5202 20.8244 15.2951C20.8244 12.1595 18.3218 9.61138 15.2422 9.61138C12.1637 9.61138 9.66099 12.1595 9.66099 15.2951C9.66099 18.4316 12.1637 20.9797 15.2422 20.9797H15.5002C15.4126 20.4725 15.3754 19.9578 15.3891 19.4433C15.4017 19.0935 15.4761 19.0433 15.6229 19.3177C16.396 20.6801 17.4995 21.9044 19.6591 22.3905C21.4255 22.7915 23.1918 23.2534 25.0935 25.7145C25.2645 25.9271 25.0075 26.1512 24.8113 25.9763C22.873 24.2274 21.1066 23.6524 19.4997 23.6524C17.6956 23.666 16.4694 23.9037 15.2297 23.9037C10.5683 23.9037 6.79016 20.054 6.79016 15.3066V15.3076Z" fill="white"/>
</svg>
