<svg width="62" height="20" viewBox="0 0 62 20" fill="none" xmlns="http://www.w3.org/2000/svg">
<path d="M22.7428 18.9281L25.8349 1.53503H30.6663L27.6708 18.9281H22.7428Z" fill="#3C58BF"/>
<path d="M22.7428 18.9281L26.7046 1.53503H30.6663L27.6708 18.9281H22.7428Z" fill="#293688"/>
<path d="M45.1605 1.72829C44.1942 1.34178 42.6481 0.955261 40.7156 0.955261C35.8842 0.955261 32.4055 3.37097 32.4055 6.84958C32.4055 9.45855 34.8212 10.8113 36.7538 11.681C38.6864 12.5506 39.2661 13.1304 39.2661 13.9034C39.2661 15.063 37.7201 15.6428 36.3673 15.6428C34.4347 15.6428 33.3718 15.3529 31.7291 14.6765L31.0527 14.3866L30.3763 18.3483C31.5359 18.8315 33.6617 19.3146 35.8842 19.3146C41.0054 19.3146 44.3874 16.8989 44.3874 13.227C44.3874 11.1979 43.1313 9.6518 40.2324 8.39564C38.4931 7.52598 37.4302 7.04284 37.4302 6.17319C37.4302 5.40016 38.2999 4.62714 40.2324 4.62714C41.8751 4.62714 43.0346 4.91702 43.9043 5.30353L44.3874 5.49679L45.1605 1.72829Z" fill="#3C58BF"/>
<path d="M45.1605 1.72829C44.1942 1.34178 42.6481 0.955261 40.7156 0.955261C35.8842 0.955261 33.2752 3.37097 33.2752 6.84958C33.2752 9.45855 34.8212 10.8113 36.7538 11.681C38.6864 12.5506 39.2661 13.1304 39.2661 13.9034C39.2661 15.063 37.7201 15.6428 36.3673 15.6428C34.4347 15.6428 33.3718 15.3529 31.7291 14.6765L31.0527 14.3866L30.3763 18.3483C31.5359 18.8315 33.6617 19.3146 35.8842 19.3146C41.0054 19.3146 44.3874 16.8989 44.3874 13.227C44.3874 11.1979 43.1313 9.6518 40.2324 8.39564C38.4931 7.52598 37.4302 7.04284 37.4302 6.17319C37.4302 5.40016 38.2999 4.62714 40.2324 4.62714C41.8751 4.62714 43.0346 4.91702 43.9043 5.30353L44.3874 5.49679L45.1605 1.72829Z" fill="#293688"/>
<path d="M53.4705 1.53503C52.311 1.53503 51.4413 1.63166 50.9582 2.7912L43.7111 18.9281H48.929L49.8953 16.0293H56.0795L56.6592 18.9281H61.2974L57.239 1.53503H53.4705ZM51.2481 13.1304C51.5379 12.2608 53.1806 8.00913 53.1806 8.00913C53.1806 8.00913 53.5671 6.94621 53.857 6.26982L54.1469 7.9125C54.1469 7.9125 55.1132 12.2608 55.3064 13.227H51.2481V13.1304Z" fill="#3C58BF"/>
<path d="M54.63 1.53503C53.4705 1.53503 52.6009 1.63166 52.1177 2.7912L43.7111 18.9281H48.929L49.8953 16.0293H56.0795L56.6592 18.9281H61.2974L57.239 1.53503H54.63ZM51.2481 13.1304C51.6346 12.1641 53.1806 8.00913 53.1806 8.00913C53.1806 8.00913 53.5671 6.94621 53.857 6.26982L54.1469 7.9125C54.1469 7.9125 55.1132 12.2608 55.3064 13.227H51.2481V13.1304Z" fill="#293688"/>
<path d="M13.853 13.7102L13.3698 11.1978C12.5002 8.299 9.69794 5.11027 6.60583 3.56422L10.9541 19.0247H16.172L23.9989 1.63165H18.781L13.853 13.7102Z" fill="#3C58BF"/>
<path d="M13.853 13.7102L13.3698 11.1978C12.5002 8.299 9.69794 5.11027 6.60583 3.56422L10.9541 19.0247H16.172L23.9989 1.63165H19.7473L13.853 13.7102Z" fill="#293688"/>
<path d="M0.421631 1.53503L1.29128 1.72829C7.47549 3.17771 11.7271 6.84959 13.3698 11.1979L11.6305 2.98446C11.3406 1.82492 10.471 1.53503 9.40806 1.53503H0.421631Z" fill="#FFBC00"/>
<path d="M0.421631 1.53503C6.60584 2.98446 11.7271 6.75296 13.3698 11.1012L11.7271 4.24062C11.4372 3.08109 10.471 2.40469 9.40806 2.40469L0.421631 1.53503Z" fill="#F7981D"/>
<path d="M0.421631 1.53503C6.60584 2.98446 11.7271 6.75296 13.3698 11.1012L12.2103 7.33273C11.9204 6.17319 11.5339 5.01365 10.1811 4.53051L0.421631 1.53503Z" fill="#ED7C00"/>
<path d="M18.6844 13.1304L15.3991 9.84505L13.853 13.5169L13.4665 11.1012C12.5968 8.20237 9.79462 5.01364 6.70251 3.46759L11.0508 18.9281H16.2687L18.6844 13.1304Z" fill="#051244"/>
<path d="M27.6708 18.9281L23.5158 14.6765L22.7428 18.9281H27.6708Z" fill="#051244"/>
<path d="M38.783 12.9371C39.1695 13.3236 39.3628 13.6135 39.2661 14C39.2661 15.1596 37.7201 15.7394 36.3673 15.7394C34.4347 15.7394 33.3718 15.4495 31.7291 14.7731L31.0527 14.4832L30.3763 18.4449C31.5359 18.9281 33.6617 19.4112 35.8842 19.4112C38.9763 19.4112 41.4886 18.5416 42.938 16.9955L38.783 12.9371Z" fill="#051244"/>
<path d="M44.3875 18.9281H48.929L49.8953 16.0293H56.0795L56.6592 18.9281H61.2974L59.6547 11.8743L53.857 6.26984L54.1469 7.81589C54.1469 7.81589 55.1132 12.1642 55.3064 13.1304H51.2481C51.6346 12.1642 53.1806 8.00915 53.1806 8.00915C53.1806 8.00915 53.5671 6.94623 53.857 6.26984" fill="#051244"/>
</svg>
