<svg width="67" height="49" viewBox="0 0 67 49" fill="none" xmlns="http://www.w3.org/2000/svg">
<path fill-rule="evenodd" clip-rule="evenodd" d="M21.6512 24.5475C21.6512 22.7932 21.7935 21.6909 25.4205 18.9765C28.4193 16.7363 38.044 9.07922 38.044 9.07922V21.8568H45.3574V40.2528H23.9389C22.6825 40.2528 21.6512 39.2216 21.6512 37.9651V24.5475Z" fill="#FFCF01"/>
<path fill-rule="evenodd" clip-rule="evenodd" d="M38.0439 21.8569V29.265L24.6025 38.4156L41.5998 32.8921V21.8569H38.0439Z" fill="#D3AC06"/>
<path fill-rule="evenodd" clip-rule="evenodd" d="M31.9041 21.4776C32.6864 20.5412 33.8361 20.2093 34.4643 20.7427C35.0926 21.2761 34.974 22.4614 34.1799 23.3978C33.3976 24.3342 32.2478 24.666 31.6196 24.1327C30.9914 23.5993 31.1099 22.414 31.9041 21.4776Z" fill="#231F20"/>
</svg>
