<svg width="40" height="40" viewBox="0 0 40 40" fill="none" xmlns="http://www.w3.org/2000/svg">
<g clip-path="url(#clip0_1_671)">
<path d="M39.9135 30.9927C39.8004 30.6518 39.0806 30.1496 37.7546 29.4873C37.3954 29.2786 36.8835 28.9949 36.2213 28.635C35.5584 28.2751 34.9567 27.9434 34.4173 27.6403C33.8768 27.3373 33.3704 27.0438 32.8973 26.7601C32.8216 26.7033 32.5849 26.5378 32.1872 26.2626C31.7891 25.9882 31.4534 25.7845 31.1782 25.6517C30.9037 25.5196 30.6337 25.4532 30.3685 25.4532C29.9898 25.4532 29.5167 25.7232 28.9488 26.2626C28.3808 26.8027 27.8598 27.3894 27.3866 28.0244C26.9133 28.6591 26.4113 29.2458 25.8815 29.7856C25.351 30.3256 24.915 30.5954 24.5745 30.5954C24.4036 30.5954 24.1905 30.5477 23.935 30.4537C23.6797 30.3591 23.4855 30.278 23.3521 30.2126C23.22 30.1458 22.9932 30.0137 22.671 29.8142C22.3483 29.6153 22.1687 29.5063 22.1309 29.4873C19.5364 28.0476 17.3112 26.3998 15.455 24.5444C13.5994 22.6879 11.9514 20.4629 10.5121 17.868C10.4932 17.8301 10.384 17.6501 10.1853 17.3283C9.9863 17.0063 9.85366 16.7793 9.78739 16.6464C9.72112 16.5139 9.64063 16.3197 9.5461 16.0641C9.45157 15.8084 9.40411 15.5955 9.40411 15.4249C9.40411 15.0842 9.67406 14.6483 10.2139 14.118C10.7536 13.5879 11.3408 13.0858 11.9751 12.6127C12.6098 12.1396 13.1965 11.6186 13.7364 11.0506C14.2761 10.4823 14.5459 10.0091 14.5459 9.6304C14.5459 9.36542 14.4797 9.09527 14.3472 8.82074C14.2147 8.54562 14.0111 8.20989 13.7364 7.81198C13.4615 7.41427 13.2959 7.17775 13.239 7.10163C12.9552 6.62849 12.6619 6.12192 12.3586 5.58212C12.0552 5.04241 11.724 4.44082 11.364 3.77803C11.0043 3.11554 10.7204 2.60399 10.5119 2.24419C9.84938 0.918711 9.34759 0.198707 9.00659 0.0854731C8.87396 0.0286569 8.67495 0 8.41007 0C7.89843 0 7.23096 0.0945278 6.40718 0.284181C5.58309 0.473535 4.93463 0.672143 4.4611 0.8808C3.51413 1.27831 2.51044 2.43354 1.44974 4.34609C0.483865 6.126 0.000976562 7.8877 0.000976562 9.6299C0.000976562 10.1408 0.0341111 10.638 0.10038 11.1213C0.166649 11.6042 0.285058 12.1488 0.455705 12.755C0.626054 13.361 0.763468 13.8111 0.867349 14.1042C0.97133 14.3976 1.16546 14.9231 1.44964 15.6809C1.73342 16.4385 1.90407 16.9023 1.96089 17.0727C2.62368 18.9289 3.40965 20.5859 4.31861 22.0443C5.81414 24.4684 7.85505 26.9736 10.4401 29.5589C13.0253 32.1439 15.53 34.1847 17.9543 35.6809C19.4125 36.5897 21.0701 37.3756 22.926 38.0389C23.0965 38.0954 23.5603 38.2657 24.3176 38.5504C25.0752 38.8344 25.6009 39.0286 25.8942 39.1327C26.1877 39.237 26.6379 39.3745 27.2434 39.5452C27.8502 39.7158 28.3943 39.8342 28.8771 39.901C29.3603 39.9664 29.8575 40.0001 30.3686 40.0001C32.1107 40.0001 33.8725 39.5169 35.6527 38.5511C37.565 37.4908 38.72 36.4869 39.1177 35.5393C39.3268 35.0662 39.525 34.4176 39.7143 33.5935C39.9043 32.7698 39.9986 32.1024 39.9986 31.5909C39.9992 31.3249 39.9706 31.1264 39.9135 30.9927Z" fill="white"/>
</g>
<defs>
<clipPath id="clip0_1_671">
<rect width="40" height="40" fill="white"/>
</clipPath>
</defs>
</svg>
